<svg id="Layer_1" data-name="Layer 1" xmlns="http://www.w3.org/2000/svg" width="156.72" height="194.09" viewBox="0 0 156.72 194.09">
  <defs>
    <style>
      .cls-1 {
        opacity: 1;
      }

      .cls-2 {
        fill: #fff ;
      }

      .cls-3, .cls-4, .cls-5 {
        fill: #732876;
      }

      .cls-4 {
        opacity: 0.8;
      }

      .cls-5 {
        opacity: 0.6;
      }
    </style>
  </defs>
  <title>knee</title>
  <g class="cls-1">
    <path class="cls-2" d="M103.75,194.09c-4-21.44-11.45-55.15-19-56.23-7-1-10.5-9.26-9.81-16.7a43.82,43.82,0,0,0,9.81,5.45,23,23,0,0,0,7.83,1.49,40.71,40.71,0,0,0,18.23-3.74c6.14-2.89,11.63-7.57,14.57-14.52h0a28.38,28.38,0,0,0,2.07-8.38c4.36,1.52,12.26,3.48,13.3,9.51,12,5.7,11.09,23.9,8.18,38a185.61,185.61,0,0,0-2,45.13Zm-28.67,0c-3.8-9.51-8.76-22.38-3.11-28.71,4.51-5,1.22-4.3,2.27-9.51,1.22-6.13-2.38-11,1.91-16.61,4.22.94,8.86,2.56,11.44,6.07,1.7,2.3,2.57,6,3.29,9a115.15,115.15,0,0,1,7.59,25.18c.73,4.24.46,7.93.73,11.81a9.67,9.67,0,0,1-.22,2.79ZM0,0C27.91,12.69,55.12,25.17,82.73,35.94c48,2.16,57,24,42.15,56.69,1.87,25.32-27.14,33.18-37.65,30.06-20.39-6.06-21.41-16.22-23.52-44.1A633,633,0,0,0,0,43.34ZM154.25,113.84c-2.53.73-11.87-13.48-14.27-16.17-7.4-8.29-5.22-17.43-1.22-26.08,3-9.8,13.84-6,16.09,7.64C155.88,85.5,158.8,112.51,154.25,113.84Z"/>
  </g>
  <g>
    <path class="cls-3" d="M101.56,73.37a16.29,16.29,0,1,0,16.29,16.29A16.31,16.31,0,0,0,101.56,73.37Z"/>
    <path class="cls-4" d="M101.56,123.52a33.86,33.86,0,1,1,33.87-33.86A33.9,33.9,0,0,1,101.56,123.52Zm0-59A25.14,25.14,0,1,0,126.7,89.66,25.17,25.17,0,0,0,101.56,64.52Z"/>
    <path class="cls-5" d="M101.56,139.09A49.43,49.43,0,1,1,151,89.66,49.48,49.48,0,0,1,101.56,139.09Zm0-92.22a42.79,42.79,0,1,0,42.8,42.79A42.84,42.84,0,0,0,101.56,46.87Z"/>
  </g>
</svg>
