<svg id="Layer_1" data-name="Layer 1" xmlns="http://www.w3.org/2000/svg" width="90.47" height="55.27" viewBox="0 0 90.47 55.27">
  <defs>
    <style>
      .cls-1 {
        fill: #732876;
      }
    </style>
  </defs>
  <title>sixtyfive</title>
  <g>
    <path class="cls-1" d="M30.55,13.79a2,2,0,0,1-1.76-1c-1.07-1.94-3.44-3.63-7.23-3.63-6.91,0-11,7.7-10.7,17.42h.66c1.6-3.63,5.63-7.22,12.74-7.22C32.73,19.38,41,25.16,41,36.45c0,11.91-8.44,18.78-19.89,18.78C14.22,55.23,7.89,52.7,4,46.29c-2.5-4.1-4-9.84-4-17.58C0,9.49,8.44,0,21.68,0,31.93,0,37.85,5.57,39.47,11.2a2,2,0,0,1-1.91,2.59Zm-9.42,32.3c5.16,0,9-3.16,9-9.14,0-5.82-4.14-9-9-9-5.39,0-9.06,3.71-9.06,8.94C12.11,42.62,16.05,46.09,21.13,46.09Z"/>
    <path class="cls-1" d="M59.67,40.16a2.06,2.06,0,0,1,1.91,1.2c1.27,3,4.87,4.73,8.69,4.73a9.12,9.12,0,0,0,9.34-9.49c0-5.43-4.18-9-9.3-9a9.58,9.58,0,0,0-7.84,3.72,2,2,0,0,1-1.63.85H54.18a2,2,0,0,1-2-2.14L54.09,2.8a2,2,0,0,1,2-1.86H85.42a2,2,0,0,1,2,2V8.31a2,2,0,0,1-2,2H65a2,2,0,0,0-2,1.84L62.07,23.4h.55c1.05-1.72,4.68-4.57,10.74-4.57,9.14,0,17.11,6.13,17.11,17.38,0,11.6-8.24,19.06-20.35,19.06-10.32,0-17.45-5.4-18.91-12.74a2,2,0,0,1,2-2.37Z"/>
  </g>
</svg>
